<?xml version="1.0" encoding="UTF-8"?>
<svg width="500" height="93.486" version="1.1" viewBox="0 0 500 93.485607" xml:space="preserve" xmlns="http://www.w3.org/2000/svg" xmlns:cc="http://creativecommons.org/ns#" xmlns:dc="http://purl.org/dc/elements/1.1/" xmlns:rdf="http://www.w3.org/1999/02/22-rdf-syntax-ns#"><metadata><rdf:RDF><cc:Work rdf:about=""><dc:format>image/svg+xml</dc:format><dc:type rdf:resource="http://purl.org/dc/dcmitype/StillImage"/><dc:title/></cc:Work></rdf:RDF></metadata><g transform="translate(-142.93 408.92)" fill="#a30b35"><path d="m635.86-403.05c3.933 0 7.0679 3.1966 7.0679 7.1958 0 4.0608-3.1349 7.231-7.0988 7.231-3.933 0-7.1341-3.1702-7.1341-7.231 0-3.9991 3.2011-7.1958 7.1341-7.1958zm-0.0309 1.1199c-3.1658 0-5.7584 2.7161-5.7584 6.0758 0 3.4259 2.5926 6.1111 5.7892 6.1111 3.2011 0.0309 5.7584-2.6852 5.7584-6.0758 0-3.3951-2.5573-6.1111-5.7584-6.1111zm-1.3448 10.269h-1.2787v-8.0291c0.6702-0.097 1.3095-0.194 2.2707-0.194 1.2169 0 2.015 0.25573 2.4956 0.60847 0.47619 0.35273 0.73633 0.89506 0.73633 1.6623 0 1.0582-0.70547 1.6975-1.5697 1.9533v0.0617c0.70547 0.12787 1.1861 0.7672 1.3448 1.9533 0.1896 1.2478 0.3836 1.724 0.51147 1.9841h-1.3448c-0.1896-0.26014-0.3836-0.99207-0.54233-2.0503-0.19401-1.0229-0.70547-1.4065-1.7284-1.4065h-0.89506zm0-4.4489h0.92592c1.0582 0 1.9533-0.3836 1.9533-1.3757 0-0.70106-0.51146-1.4065-1.9533-1.4065-0.41446 0-0.70106 0.0309-0.92592 0.0661z"/><path d="m142.93-338.17 15.961-70.745h63.1l-2.9321 14.268h-34.722l-2.6058 11.949h30.278l-3.1041 14.109h-30.331l-3.3466 15.406h35.688l-3.1261 15.013z"/><path d="m219.54-379.65c6.4683-25.009 23.717-24.793 44.198-24.361 14.026 0.291 35.789 0.42769 31.914 22.421 0 0-0.8686 6.2478-2.2884 13.007h-22.086l44.374 53.153h-29.449l-19.228-23.042s-7.3325 2.5926-18.973 2.1561c-11.645-0.4321-33.206 9e-3 -32.341-20.269 0.4321-10.128 3.8801-23.064 3.8801-23.064m27.169-3.448c-4.4841 12.482-6.0406 23.929-6.0406 23.929-1.5079 8.4083 4.5282 11.429 10.353 11.429 4.7575 0 11.486-2.8131 13.58-8.6244 4.3474-12.072 6.0362-24.149 6.0362-24.149 2.1561-13.364-10.348-11.424-10.348-11.424-10.004-0.67461-13.58 8.8404-13.58 8.8404"/><path d="m307.25-401h25.745s-8.2364 36.226-10.009 45.163c0 0 0.26455 7.4471 8.1261 7.4736 0 0 10.3 1.5917 12.368-6.8563l10.304-45.78h26.138s-9.8854 45.282-11.618 50.886c-1.7196 5.6085-10.348 13.153-29.965 14.233-3.3818 0.18078-9.2725 0-15.957-0.8642l-23.497-27.813s6.2963-29.012 8.3642-36.442"/><path d="m389.65-401h26.301l-14.206 62.707h-25.688z"/><path d="m438.02-338.29h-25.948l13.646-62.707h56.605l-2.9982 12.266h-29.797l-2.8439 11.548h25.432l-2.6764 12.046h-25.172z"/><path d="m473.57-338.29h-18.223l44.277-62.707h31.455l6.2566 50.891 21.124-19.409-20.728-31.482h33.329l10.04 15.961 16.235-15.961h25.538l-33.153 29.109 21.64 33.598h-32.139l-10.847-18.721-17.981 18.721h-38.867l-1.2125-13.699h-27.478zm18.117-27.346h16.508l-2.0194-20.697z"/></g></svg>
