<svg width="128" height="128" viewBox="0 0 128 128" fill="none" xmlns="http://www.w3.org/2000/svg">
    <rect width="128" height="128" rx="28" fill="url(#paint0_linear_8_288)"/>
    <path fill-rule="evenodd" clip-rule="evenodd"
          d="M61.5734 14.8193L17.6888 46.7354C17.6117 46.7901 17.5365 46.8475 17.4635 46.9074C17.0238 47.2674 16.6792 47.7044 16.4352 48.1845C16.1902 48.6646 16.0393 49.2007 16.0069 49.7686C16.0014 49.8626 15.9992 49.9568 16.0003 50.0512V77.956C15.9999 77.9877 15.9999 78.0194 16.0003 78.0511V106C16.0003 108.209 17.7911 110 20.0003 110H108C110.209 110 112 108.209 112 106V78.0511L112.001 78.0195C112.001 77.9983 112.001 77.9772 112 77.956V50.0511C112.001 49.957 111.999 49.863 111.994 49.7692C111.961 49.201 111.81 48.6645 111.565 48.1841C111.27 47.6056 110.838 47.1084 110.312 46.7353L66.4271 14.8193C66.1975 14.6439 65.9516 14.4959 65.6945 14.376C65.1541 14.1226 64.5753 13.9995 64.0003 14C63.4253 13.9995 62.8465 14.1226 62.306 14.376C62.0489 14.4959 61.8031 14.6439 61.5734 14.8193ZM52.0003 102H76.0003V59.6735L64.0003 50.9463L52.0003 59.6735V102ZM44.0003 65.4917V102H24.0003V80.0372L44.0003 65.4917ZM104 102H84.0003V65.4917L104 80.0372V102ZM104 70.1452V52.0372L64.0003 22.9463L24.0003 52.0372V70.1452L61.5733 42.8193C61.803 42.644 62.0489 42.4959 62.306 42.376C62.8465 42.1226 63.4253 41.9995 64.0003 42C64.5753 41.9995 65.1541 42.1226 65.6945 42.376C65.9516 42.4959 66.1975 42.6439 66.4272 42.8193L104 70.1452Z"
          fill="white"/>
    <defs>
        <linearGradient id="paint0_linear_8_288" x1="0" y1="128" x2="128" y2="0" gradientUnits="userSpaceOnUse">
            <stop stop-color="#3B82F6"/>
            <stop offset="1" stop-color="#22C55E"/>
        </linearGradient>
    </defs>
</svg>
